<svg xmlns="http://www.w3.org/2000/svg" xmlns:xlink="http://www.w3.org/1999/xlink" width="500" zoomAndPan="magnify" viewBox="0 0 375 374.999991" height="500" preserveAspectRatio="xMidYMid meet" version="1.0"><defs><clipPath id="e573d0ba58"><path d="M 6.777344 37.5 L 368.277344 37.5 L 368.277344 123 L 6.777344 123 Z M 6.777344 37.5 " clip-rule="nonzero"/></clipPath><clipPath id="b838d91dea"><path d="M 6.777344 87.652344 L 368.277344 87.652344 L 368.277344 337.492188 L 6.777344 337.492188 Z M 6.777344 87.652344 " clip-rule="nonzero"/></clipPath></defs><g clip-path="url(#e573d0ba58)"><path fill="#00d46c" d="M 6.777344 122.742188 L 6.777344 70.027344 C 6.777344 52.066406 21.339844 37.503906 39.308594 37.503906 L 109.191406 37.503906 C 116.078125 37.503906 122.785156 39.6875 128.351562 43.742188 L 158.777344 65.917969 L 335.746094 65.917969 C 353.714844 65.917969 368.277344 80.480469 368.277344 98.441406 L 368.277344 122.742188 L 6.777344 122.742188 " fill-opacity="1" fill-rule="nonzero"/></g><g clip-path="url(#b838d91dea)"><path fill="#00d46c" d="M 335.746094 87.722656 L 39.308594 87.722656 C 21.339844 87.722656 6.777344 102.285156 6.777344 120.246094 L 6.777344 304.96875 C 6.777344 322.933594 21.339844 337.492188 39.308594 337.492188 L 335.746094 337.492188 C 353.714844 337.492188 368.277344 322.933594 368.277344 304.96875 L 368.277344 120.246094 C 368.277344 102.285156 353.714844 87.722656 335.746094 87.722656 " fill-opacity="1" fill-rule="nonzero"/></g></svg>